<svg width="84" height="70" viewBox="0 0 84 70" fill="none" xmlns="http://www.w3.org/2000/svg">
<path d="M41.9748 18.3601C41.9748 14.6438 40.4985 11.0796 37.8707 8.4518C35.2428 5.82396 31.6787 4.34766 27.9624 4.34766H8.69531V55.1427H31.4655C34.2527 55.1427 36.9258 56.2499 38.8967 58.2208C40.8676 60.1917 41.9748 62.8648 41.9748 65.652M41.9748 18.3601V65.652M41.9748 18.3601C41.9748 14.6438 43.4511 11.0796 46.079 8.4518C48.7068 5.82396 52.2709 4.34766 55.9872 4.34766H75.2543V55.1427H52.4841C49.6969 55.1427 47.0238 56.2499 45.0529 58.2208C43.082 60.1917 41.9748 62.8648 41.9748 65.652" stroke="#686868" stroke-opacity="0.25" stroke-width="7.00621" stroke-linejoin="round"/>
</svg>
