<svg width="17" height="10" viewBox="0 0 17 10" fill="none" xmlns="http://www.w3.org/2000/svg">
<path fill-rule="evenodd" clip-rule="evenodd" d="M7.42027 0.365577C7.65468 0.131238 7.97256 -0.000406069 8.30402 -0.00040604C8.63547 -0.000406011 8.95336 0.131238 9.18777 0.365577L16.259 7.43683C16.3784 7.55214 16.4736 7.69007 16.5391 7.84257C16.6047 7.99508 16.6391 8.1591 16.6406 8.32508C16.642 8.49105 16.6104 8.65565 16.5475 8.80927C16.4847 8.96289 16.3919 9.10246 16.2745 9.21982C16.1571 9.33719 16.0176 9.43 15.864 9.49285C15.7103 9.55571 15.5457 9.58733 15.3798 9.58589C15.2138 9.58445 15.0498 9.54997 14.8973 9.48445C14.7448 9.41894 14.6068 9.32372 14.4915 9.20433L8.30402 3.01683L2.11651 9.20433C1.88076 9.43202 1.56501 9.55802 1.23726 9.55517C0.909517 9.55232 0.596003 9.42086 0.364243 9.1891C0.132481 8.95734 0.00101861 8.64382 -0.00182904 8.31608C-0.00467668 7.98833 0.121317 7.67258 0.349014 7.43683L7.42027 0.365577Z" fill="#515151"/>
</svg>
