<svg width="22" height="26" viewBox="0 0 22 26" fill="none" xmlns="http://www.w3.org/2000/svg">
<path d="M6.875 2.89164C6.51033 2.89164 6.16059 3.04378 5.90273 3.31459C5.64487 3.58541 5.5 3.95271 5.5 4.33569C5.5 4.71868 5.64487 5.08598 5.90273 5.35679C6.16059 5.6276 6.51033 5.77974 6.875 5.77974C7.23967 5.77974 7.58941 5.6276 7.84727 5.35679C8.10513 5.08598 8.25 4.71868 8.25 4.33569C8.25 3.95271 8.10513 3.58541 7.84727 3.31459C7.58941 3.04378 7.23967 2.89164 6.875 2.89164ZM2.98375 2.89164C3.26783 2.0461 3.79464 1.31392 4.49157 0.796019C5.18851 0.278118 6.02124 0 6.875 0C7.72876 0 8.56149 0.278118 9.25843 0.796019C9.95536 1.31392 10.4822 2.0461 10.7662 2.89164H20.625C20.9897 2.89164 21.3394 3.04378 21.5973 3.31459C21.8551 3.58541 22 3.95271 22 4.33569C22 4.71868 21.8551 5.08598 21.5973 5.35679C21.3394 5.6276 20.9897 5.77974 20.625 5.77974H10.7662C10.4822 6.62528 9.95536 7.35747 9.25843 7.87537C8.56149 8.39327 7.72876 8.67138 6.875 8.67138C6.02124 8.67138 5.18851 8.39327 4.49157 7.87537C3.79464 7.35747 3.26783 6.62528 2.98375 5.77974H1.375C1.01033 5.77974 0.660591 5.6276 0.402728 5.35679C0.144866 5.08598 0 4.71868 0 4.33569C0 3.95271 0.144866 3.58541 0.402728 3.31459C0.660591 3.04378 1.01033 2.89164 1.375 2.89164H2.98375ZM15.125 11.5559C14.7603 11.5559 14.4106 11.7081 14.1527 11.9789C13.8949 12.2497 13.75 12.617 13.75 13C13.75 13.383 13.8949 13.7503 14.1527 14.0211C14.4106 14.2919 14.7603 14.4441 15.125 14.4441C15.4897 14.4441 15.8394 14.2919 16.0973 14.0211C16.3551 13.7503 16.5 13.383 16.5 13C16.5 12.617 16.3551 12.2497 16.0973 11.9789C15.8394 11.7081 15.4897 11.5559 15.125 11.5559ZM11.2338 11.5559C11.5178 10.7104 12.0446 9.97823 12.7416 9.46033C13.4385 8.94242 14.2712 8.66431 15.125 8.66431C15.9788 8.66431 16.8115 8.94242 17.5084 9.46033C18.2054 9.97823 18.7322 10.7104 19.0163 11.5559H20.625C20.9897 11.5559 21.3394 11.7081 21.5973 11.9789C21.8551 12.2497 22 12.617 22 13C22 13.383 21.8551 13.7503 21.5973 14.0211C21.3394 14.2919 20.9897 14.4441 20.625 14.4441H19.0163C18.7322 15.2896 18.2054 16.0218 17.5084 16.5397C16.8115 17.0576 15.9788 17.3357 15.125 17.3357C14.2712 17.3357 13.4385 17.0576 12.7416 16.5397C12.0446 16.0218 11.5178 15.2896 11.2338 14.4441H1.375C1.01033 14.4441 0.660591 14.2919 0.402728 14.0211C0.144866 13.7503 0 13.383 0 13C0 12.617 0.144866 12.2497 0.402728 11.9789C0.660591 11.7081 1.01033 11.5559 1.375 11.5559H11.2338ZM6.875 20.2203C6.51033 20.2203 6.16059 20.3724 5.90273 20.6432C5.64487 20.914 5.5 21.2813 5.5 21.6643C5.5 22.0473 5.64487 22.4146 5.90273 22.6854C6.16059 22.9562 6.51033 23.1084 6.875 23.1084C7.23967 23.1084 7.58941 22.9562 7.84727 22.6854C8.10513 22.4146 8.25 22.0473 8.25 21.6643C8.25 21.2813 8.10513 20.914 7.84727 20.6432C7.58941 20.3724 7.23967 20.2203 6.875 20.2203ZM2.98375 20.2203C3.26783 19.3747 3.79464 18.6425 4.49157 18.1246C5.18851 17.6067 6.02124 17.3286 6.875 17.3286C7.72876 17.3286 8.56149 17.6067 9.25843 18.1246C9.95536 18.6425 10.4822 19.3747 10.7662 20.2203H20.625C20.9897 20.2203 21.3394 20.3724 21.5973 20.6432C21.8551 20.914 22 21.2813 22 21.6643C22 22.0473 21.8551 22.4146 21.5973 22.6854C21.3394 22.9562 20.9897 23.1084 20.625 23.1084H10.7662C10.4822 23.9539 9.95536 24.6861 9.25843 25.204C8.56149 25.7219 7.72876 26 6.875 26C6.02124 26 5.18851 25.7219 4.49157 25.204C3.79464 24.6861 3.26783 23.9539 2.98375 23.1084H1.375C1.01033 23.1084 0.660591 22.9562 0.402728 22.6854C0.144866 22.4146 0 22.0473 0 21.6643C0 21.2813 0.144866 20.914 0.402728 20.6432C0.660591 20.3724 1.01033 20.2203 1.375 20.2203H2.98375Z" fill="#4F4F4F"/>
</svg>
