<svg width="31" height="25" viewBox="0 0 31 25" fill="none" xmlns="http://www.w3.org/2000/svg">
<path fill-rule="evenodd" clip-rule="evenodd" d="M4.3224 10.588C4.3224 8.71589 5.23284 6.9205 6.85343 5.59675C8.47403 4.27299 10.672 3.52932 12.9639 3.52932C15.2558 3.52932 17.4538 4.27299 19.0743 5.59675C20.6949 6.9205 21.6054 8.71589 21.6054 10.588C21.6054 12.46 20.6949 14.2554 19.0743 15.5792C17.4538 16.9029 15.2558 17.6466 12.9639 17.6466C10.672 17.6466 8.47403 16.9029 6.85343 15.5792C5.23284 14.2554 4.3224 12.46 4.3224 10.588ZM12.9639 2.00221e-07C10.9239 -0.000212447 8.91257 0.392888 7.0936 1.14733C5.27463 1.90177 3.69934 2.99625 2.49586 4.34176C1.29238 5.68727 0.494679 7.2458 0.167643 8.89061C-0.159392 10.5354 -0.00652971 12.2201 0.613797 13.8075C1.23412 15.395 2.3044 16.8404 3.73758 18.0263C5.17076 19.2122 6.92637 20.105 8.86163 20.6321C10.7969 21.1593 12.8571 21.3059 14.8749 21.06C16.8926 20.8141 18.8107 20.1827 20.4733 19.2171L26.5591 24.1882C26.9666 24.5096 27.5123 24.6875 28.0787 24.6835C28.6452 24.6795 29.187 24.4939 29.5876 24.1667C29.9881 23.8395 30.2153 23.3969 30.2202 22.9342C30.2252 22.4715 30.0074 22.0258 29.6139 21.693L23.5303 16.7237C24.9092 15.1396 25.7277 13.2761 25.8961 11.3374C26.0646 9.39858 25.5764 7.45934 24.4851 5.73214C23.3938 4.00494 21.7415 2.55644 19.7093 1.54535C17.6771 0.534269 15.3434 -0.000377727 12.9639 2.00221e-07Z" fill="#686868" fill-opacity="0.3"/>
</svg>
