<svg width="20" height="22" viewBox="0 0 20 22" fill="none" xmlns="http://www.w3.org/2000/svg">
<path d="M10.5932 21.2579L10.5822 21.2599L10.5112 21.2949L10.4912 21.2989L10.4772 21.2949L10.4062 21.2599C10.3955 21.2566 10.3875 21.2583 10.3822 21.2649L10.3782 21.2749L10.3612 21.7029L10.3662 21.7229L10.3762 21.7359L10.4802 21.8099L10.4952 21.8139L10.5072 21.8099L10.6112 21.7359L10.6232 21.7199L10.6272 21.7029L10.6102 21.2759C10.6075 21.2653 10.6018 21.2593 10.5932 21.2579ZM10.8582 21.1449L10.8452 21.1469L10.6602 21.2399L10.6502 21.2499L10.6472 21.2609L10.6652 21.6909L10.6702 21.7029L10.6782 21.7099L10.8792 21.8029C10.8918 21.8063 10.9015 21.8036 10.9082 21.7949L10.9122 21.7809L10.8782 21.1669C10.8748 21.1549 10.8682 21.1476 10.8582 21.1449ZM10.1432 21.1469C10.1388 21.1443 10.1335 21.1434 10.1285 21.1445C10.1234 21.1456 10.119 21.1487 10.1162 21.1529L10.1102 21.1669L10.0762 21.7809C10.0768 21.7929 10.0825 21.8009 10.0932 21.8049L10.1082 21.8029L10.3092 21.7099L10.3192 21.7019L10.3232 21.6909L10.3402 21.2609L10.3372 21.2489L10.3272 21.2389L10.1432 21.1469Z" fill="black" fill-opacity="0.5"/>
<path d="M10 0C15.523 0 20 4.477 20 10C20 15.523 15.523 20 10 20C4.477 20 0 15.523 0 10C0 4.477 4.477 0 10 0ZM10 2C7.87827 2 5.84344 2.84285 4.34315 4.34315C2.84285 5.84344 2 7.87827 2 10C2 12.1217 2.84285 14.1566 4.34315 15.6569C5.84344 17.1571 7.87827 18 10 18C12.1217 18 14.1566 17.1571 15.6569 15.6569C17.1571 14.1566 18 12.1217 18 10C18 7.87827 17.1571 5.84344 15.6569 4.34315C14.1566 2.84285 12.1217 2 10 2ZM10 4C10.2449 4.00003 10.4813 4.08996 10.6644 4.25272C10.8474 4.41547 10.9643 4.63975 10.993 4.883L11 5V9.586L13.707 12.293C13.8863 12.473 13.9905 12.7144 13.9982 12.9684C14.006 13.2223 13.9168 13.4697 13.7488 13.6603C13.5807 13.8508 13.3464 13.9703 13.0935 13.9944C12.8406 14.0185 12.588 13.9454 12.387 13.79L12.293 13.707L9.293 10.707C9.13758 10.5514 9.03776 10.349 9.009 10.131L9 10V5C9 4.73478 9.10536 4.48043 9.29289 4.29289C9.48043 4.10536 9.73478 4 10 4Z" fill="black" fill-opacity="0.5"/>
</svg>
