<svg width="100" height="100" viewBox="0 0 100 100" fill="none" xmlns="http://www.w3.org/2000/svg">
<rect width="100" height="100" rx="13" fill="#F3F3F3"/>
<path d="M39.1409 62.9218C38.5404 62.5143 38.024 61.9946 37.4194 61.259C37.1057 60.868 36.7947 60.4747 36.4866 60.0791C35.5598 58.9074 34.9753 58.3653 34.3728 58.1432C34.1193 58.0578 33.8851 57.9216 33.6841 57.7426C33.4831 57.5637 33.3192 57.3456 33.2023 57.1012C33.0853 56.8568 33.0175 56.5911 33.003 56.3196C32.9884 56.0482 33.0274 55.7765 33.1175 55.5206C33.2077 55.2647 33.3472 55.0298 33.5279 54.8296C33.7086 54.6295 33.9268 54.4681 34.1697 54.3551C34.4126 54.2421 34.6752 54.1798 34.9422 54.1717C35.2091 54.1636 35.4749 54.21 35.724 54.308C37.2293 54.8582 38.2482 55.8058 39.6214 57.5441C39.4332 57.3056 40.3019 58.4142 40.4881 58.6424C40.8684 59.105 41.1487 59.3862 41.3689 59.535C41.7772 59.8142 42.5459 59.9344 43.6709 59.8203C43.7189 59.0419 43.859 58.2858 44.0752 57.5889C38.1341 56.1095 34.7711 52.2091 34.7711 44.5551C34.7711 42.0282 35.5118 39.754 36.889 37.8467C36.4526 36.0249 36.5187 33.822 37.4935 31.342C37.6041 31.0614 37.7747 30.8095 37.9928 30.6044C38.2109 30.3992 38.4711 30.2461 38.7546 30.156C38.9167 30.1071 39.0088 30.0847 39.171 30.0602C40.7784 29.8075 43.0483 30.4066 46.0069 32.2936C47.7699 31.8735 49.5749 31.6628 51.3856 31.666C53.2112 31.666 55.0267 31.8779 56.7582 32.2936C59.7148 30.3924 61.9908 29.7933 63.6082 30.0602C63.779 30.0874 63.9245 30.1213 64.0446 30.1621C64.3225 30.2554 64.5769 30.4096 64.7899 30.6138C65.003 30.818 65.1695 31.0672 65.2776 31.344C66.2525 33.822 66.3185 36.0228 65.8822 37.8446C67.2654 39.752 68 42.0119 68 44.5551C68 52.2111 64.6491 56.0993 58.7079 57.5808C58.9581 58.4264 59.0883 59.3699 59.0883 60.3929C59.0883 61.7481 59.0843 63.04 59.0742 64.4889C59.0742 64.8761 59.0702 65.2918 59.0642 65.9276C59.5138 66.0272 59.916 66.2814 60.203 66.6475C60.4901 67.0136 60.6444 67.4691 60.6402 67.9375C60.636 68.4059 60.4734 68.8585 60.1798 69.2191C59.8862 69.5798 59.4795 69.8264 59.0282 69.9176C56.7462 70.3802 55.0568 68.8335 55.0568 66.81L55.0608 65.8991L55.0708 64.4624C55.0808 63.0217 55.0868 61.7379 55.0868 60.3929C55.0868 58.9726 54.7185 58.0454 54.234 57.6195C52.9109 56.4579 53.5815 54.2489 55.317 54.0513C61.2541 53.3727 63.9965 51.0312 63.9965 44.5551C63.9965 42.609 63.372 41.0012 62.1689 39.6562C61.9158 39.3729 61.7462 39.0226 61.6796 38.6456C61.613 38.2685 61.6522 37.8801 61.7926 37.5247C62.1249 36.681 62.265 35.5745 61.9828 34.2357L61.9628 34.2418C60.9799 34.525 59.7408 35.1384 58.2435 36.1757C58.0021 36.3425 57.7277 36.4535 57.4397 36.501C57.1517 36.5486 56.8569 36.5314 56.5761 36.4508C54.8865 35.9738 53.1408 35.7346 51.3876 35.7396C49.606 35.7396 47.8405 35.98 46.1991 36.4528C45.9196 36.5325 45.6264 36.5493 45.3398 36.5022C45.0533 36.455 44.7802 36.345 44.5396 36.1797C43.0323 35.1466 41.7892 34.5352 40.7964 34.2499C40.5101 35.5806 40.6522 36.6831 40.9825 37.5247C41.1223 37.88 41.1609 38.2682 41.094 38.6448C41.0271 39.0214 40.8573 39.3712 40.6042 39.6542C39.4092 40.9889 38.7766 42.6253 38.7766 44.5531C38.7766 51.017 41.521 53.3727 47.4281 54.0492C49.1596 54.2469 49.8342 56.4477 48.5191 57.6113C48.1327 57.9537 47.6583 59.103 47.6583 60.3909V66.81C47.6583 68.8172 45.9889 70.3252 43.7349 69.9237C43.2781 69.8421 42.8632 69.6014 42.5613 69.2429C42.2594 68.8844 42.0892 68.4303 42.0798 67.9582C42.0703 67.486 42.2222 67.0252 42.5095 66.6545C42.7968 66.2838 43.2016 66.0261 43.6549 65.9256V63.9081C41.8333 64.0324 40.33 63.7288 39.1429 62.9198" fill="#74BF44"/>
</svg>
