<svg width="100" height="100" viewBox="0 0 100 100" fill="none" xmlns="http://www.w3.org/2000/svg">
<rect width="100" height="100" rx="13" fill="#F3F3F3"/>
<path d="M42.75 52.35H58.25V48.65H42.75V52.35ZM42.75 57.9H58.25V54.2H42.75V57.9ZM42.75 63.45H52.4375V59.75H42.75V63.45ZM38.875 69C37.8094 69 36.8975 68.638 36.1392 67.914C35.381 67.1901 35.0013 66.3187 35 65.3V35.7C35 34.6825 35.3797 33.8118 36.1392 33.0878C36.8987 32.3638 37.8107 32.0012 38.875 32H54.375L66 43.1V65.3C66 66.3175 65.6209 67.1888 64.8627 67.914C64.1045 68.6392 63.1919 69.0012 62.125 69H38.875ZM52.4375 44.95V35.7H38.875V65.3H62.125V44.95H52.4375Z" fill="#74BF44"/>
</svg>
