<svg width="100" height="100" viewBox="0 0 100 100" fill="none" xmlns="http://www.w3.org/2000/svg">
<rect width="100" height="100" rx="13" fill="#F3F3F3"/>
<path d="M35.6813 35C33.6441 35 31.6903 35.7902 30.2498 37.1967C28.8093 38.6032 28 40.5109 28 42.5V57.5C28 59.4891 28.8093 61.3968 30.2498 62.8033C31.6903 64.2098 33.6441 65 35.6813 65H51.0439C53.0812 65 55.0349 64.2098 56.4755 62.8033C57.916 61.3968 58.7253 59.4891 58.7253 57.5V57.119L64.9778 61.334C65.5541 61.7223 66.2282 61.9494 66.9271 61.9908C67.626 62.0321 68.3232 61.8861 68.9433 61.5686C69.5633 61.251 70.0827 60.774 70.4452 60.1891C70.8077 59.6042 70.9996 58.9337 71 58.25V41.756C70.9996 41.0723 70.8077 40.4018 70.4452 39.8169C70.0827 39.232 69.5633 38.755 68.9433 38.4374C68.3232 38.1199 67.626 37.9739 66.9271 38.0152C66.2282 38.0566 65.5541 38.2837 64.9778 38.672L58.7253 42.887V42.5C58.7253 40.5109 57.916 38.6032 56.4755 37.1967C55.0349 35.7902 53.0812 35 51.0439 35H35.6813ZM58.7253 46.532L66.7261 41.138C66.8415 41.0603 66.9764 41.0148 67.1163 41.0066C67.2562 40.9984 67.3957 41.0277 67.5197 41.0914C67.6438 41.155 67.7477 41.2506 67.8201 41.3677C67.8925 41.4849 67.9307 41.6192 67.9305 41.756V58.25C67.9301 58.3866 67.8915 58.5205 67.8189 58.6372C67.7462 58.7539 67.6423 58.849 67.5184 58.9123C67.3944 58.9756 67.2551 59.0047 67.1155 58.9963C66.9759 58.988 66.8412 58.9426 66.7261 58.865L58.7253 53.474V46.532ZM31.0725 42.5C31.0725 41.3065 31.5581 40.1619 32.4224 39.318C33.2867 38.4741 34.459 38 35.6813 38H51.0439C52.2663 38 53.4385 38.4741 54.3029 39.318C55.1672 40.1619 55.6527 41.3065 55.6527 42.5V57.5C55.6527 58.6935 55.1672 59.8381 54.3029 60.682C53.4385 61.5259 52.2663 62 51.0439 62H35.6813C34.459 62 33.2867 61.5259 32.4224 60.682C31.5581 59.8381 31.0725 58.6935 31.0725 57.5V42.5Z" fill="#74BF44"/>
</svg>
