<svg width="75" height="79" viewBox="0 0 75 79" fill="none" xmlns="http://www.w3.org/2000/svg">
<rect width="74.983" height="78.3629" rx="14.3649" fill="#74BF44"/>
<path d="M53.4488 52.5455L46.2019 45.2958C48.3747 42.4644 49.3892 38.9126 49.0394 35.3608C48.6897 31.809 47.0019 28.5232 44.3186 26.1699C41.6352 23.8167 38.1571 22.5722 34.5898 22.6889C31.0226 22.8057 27.6333 24.2749 25.1095 26.7985C22.5858 29.3222 21.1165 32.7113 20.9997 36.2784C20.883 39.8455 22.1275 43.3234 24.4809 46.0067C26.8342 48.69 30.1202 50.3776 33.6721 50.7274C37.2241 51.0771 40.7762 50.0627 43.6077 47.8899L50.8607 55.1441C51.0311 55.3145 51.2333 55.4496 51.4558 55.5418C51.6784 55.6339 51.9169 55.6814 52.1578 55.6814C52.3987 55.6814 52.6372 55.6339 52.8598 55.5418C53.0824 55.4496 53.2846 55.3145 53.4549 55.1441C53.6253 54.9738 53.7604 54.7716 53.8526 54.5491C53.9447 54.3265 53.9922 54.088 53.9922 53.8471C53.9922 53.6062 53.9447 53.3677 53.8526 53.1452C53.7604 52.9226 53.6253 52.7204 53.4549 52.5501L53.4488 52.5455ZM24.6854 36.7507C24.6854 34.6984 25.2939 32.6923 26.4342 30.9859C27.5744 29.2796 29.195 27.9496 31.0911 27.1642C32.9872 26.3789 35.0736 26.1734 37.0865 26.5738C39.0994 26.9741 40.9484 27.9624 42.3996 29.4135C43.8508 30.8647 44.8391 32.7136 45.2395 34.7264C45.6399 36.7392 45.4344 38.8255 44.649 40.7215C43.8636 42.6175 42.5336 44.2381 40.8271 45.3782C39.1207 46.5184 37.1144 47.1269 35.0621 47.1269C32.3109 47.1241 29.6732 46.03 27.7278 44.0847C25.7824 42.1394 24.6882 39.5018 24.6854 36.7507Z" fill="white"/>
</svg>
