<svg width="75" height="79" viewBox="0 0 75 79" fill="none" xmlns="http://www.w3.org/2000/svg">
<rect width="74.983" height="78.3629" rx="14.3649" fill="#FFC93F"/>
<path d="M53.5978 28.0266L37.9056 22.7491C37.6372 22.6588 37.3469 22.6588 37.0785 22.7491L21.3863 28.0266C21.149 28.1073 20.9396 28.2552 20.7831 28.4525C20.6266 28.6499 20.5296 28.8884 20.5036 29.1398C20.496 29.1855 20.4921 29.2319 20.4922 29.2783V42.4719C20.4922 42.8219 20.63 43.1575 20.8752 43.4049C21.1204 43.6523 21.4531 43.7913 21.7999 43.7913C22.1467 43.7913 22.4793 43.6523 22.7245 43.4049C22.9698 43.1575 23.1076 42.8219 23.1076 42.4719V31.1089L28.5982 32.9544C27.1394 35.3322 26.6755 38.1969 27.3084 40.9196C27.9412 43.6422 29.6191 46.0001 31.9736 47.4756C29.0313 48.64 26.4879 50.746 24.6277 53.6255C24.531 53.7706 24.4638 53.9336 24.43 54.1051C24.3963 54.2766 24.3967 54.4532 24.4312 54.6245C24.4656 54.7959 24.5335 54.9586 24.6309 55.1033C24.7283 55.2479 24.8531 55.3716 24.9983 55.4671C25.1435 55.5626 25.306 55.6281 25.4764 55.6597C25.6469 55.6913 25.8219 55.6884 25.9912 55.6511C26.1605 55.6139 26.3208 55.5431 26.4628 55.4428C26.6047 55.3425 26.7255 55.2147 26.8181 55.0669C29.2814 51.254 33.1718 49.0688 37.492 49.0688C41.8123 49.0688 45.7026 51.254 48.166 55.0669C48.3578 55.3545 48.6541 55.5544 48.9908 55.6234C49.3275 55.6924 49.6776 55.6249 49.9653 55.4355C50.2531 55.2461 50.4555 54.9501 50.5286 54.6114C50.6018 54.2727 50.5399 53.9185 50.3564 53.6255C48.4962 50.746 45.9429 48.64 43.0105 47.4756C45.3627 46.0002 47.039 43.6438 47.6718 40.9231C48.3045 38.2025 47.8421 35.3398 46.3859 32.9626L53.5978 30.5383C53.8582 30.4508 54.0847 30.2828 54.2453 30.0581C54.4058 29.8335 54.4922 29.5635 54.4922 29.2866C54.4922 29.0096 54.4058 28.7397 54.2453 28.515C54.0847 28.2903 53.8582 28.1223 53.5978 28.0348V28.0266ZM45.3381 38.5139C45.3385 39.7654 45.0447 40.9991 44.481 42.1139C43.9172 43.2287 43.0995 44.1927 42.095 44.9269C41.0904 45.6611 39.9277 46.1446 38.7021 46.3376C37.4765 46.5306 36.223 46.4277 35.0445 46.0373C33.8659 45.6469 32.796 44.9801 31.9223 44.0917C31.0486 43.2033 30.3962 42.1185 30.0185 40.9264C29.6408 39.7343 29.5486 38.4689 29.7496 37.2339C29.9505 35.9989 30.4387 34.8296 31.1743 33.8219L37.0785 35.8009C37.3469 35.8912 37.6372 35.8912 37.9056 35.8009L43.8098 33.8219C44.8032 35.1809 45.3388 36.8253 45.3381 38.5139ZM37.492 33.1655L25.9354 29.2783L37.492 25.3911L49.0487 29.2783L37.492 33.1655Z" fill="white"/>
</svg>
