<svg width="75" height="75" viewBox="0 0 75 75" fill="none" xmlns="http://www.w3.org/2000/svg">
<rect width="74.983" height="74.9139" rx="14.3649" fill="#74BF44"/>
<path d="M24.1953 22.6814H44.881C47.6677 22.6814 49.0595 22.6814 49.9254 23.5472C50.7912 24.4131 50.7912 25.8049 50.7912 28.5916V37.4569C50.7912 40.2435 50.7912 41.6354 49.9254 42.5012C49.0595 43.3671 47.6677 43.3671 44.881 43.3671H34.5382M36.0157 29.3304H44.881M24.1953 44.8446V38.9344C24.1953 37.5411 24.1953 36.8452 24.6282 36.4123C25.0612 35.9793 25.7571 35.9793 27.1504 35.9793H30.1055M24.1953 44.8446H30.1055M24.1953 44.8446V52.2324M30.1055 35.9793V44.8446M30.1055 35.9793H38.9708M30.1055 44.8446V52.2324" stroke="white" stroke-width="2.26815" stroke-linecap="round" stroke-linejoin="round"/>
<path d="M30.1055 29.3303C30.1055 30.1141 29.7942 30.8657 29.24 31.4199C28.6858 31.9741 27.9342 32.2854 27.1504 32.2854C26.3667 32.2854 25.615 31.9741 25.0608 31.4199C24.5067 30.8657 24.1953 30.1141 24.1953 29.3303C24.1953 28.5466 24.5067 27.795 25.0608 27.2408C25.615 26.6866 26.3667 26.3752 27.1504 26.3752C27.9342 26.3752 28.6858 26.6866 29.24 27.2408C29.7942 27.795 30.1055 28.5466 30.1055 29.3303Z" stroke="white" stroke-width="2.26815" stroke-linecap="round" stroke-linejoin="round"/>
</svg>
