<svg width="18" height="14" viewBox="0 0 18 14" fill="none" xmlns="http://www.w3.org/2000/svg">
<path d="M17.6362 7.4922C17.8266 7.30172 17.9336 7.04342 17.9336 6.77409C17.9336 6.50476 17.8266 6.24645 17.6362 6.05598L11.8903 0.310085C11.7966 0.213074 11.6845 0.135695 11.5606 0.0824623C11.4367 0.0292298 11.3034 0.00121001 11.1685 3.8054e-05C11.0337 -0.0011339 10.8999 0.0245657 10.7751 0.0756366C10.6503 0.126708 10.5369 0.202128 10.4415 0.297496C10.3461 0.392864 10.2707 0.50627 10.2196 0.631097C10.1686 0.755925 10.1429 0.889674 10.144 1.02454C10.1452 1.15941 10.1732 1.29269 10.2265 1.41661C10.2797 1.54053 10.3571 1.65261 10.4541 1.7463L14.4662 5.75837L1.01507 5.75837C0.745682 5.75837 0.487331 5.86539 0.296846 6.05587C0.106363 6.24635 -0.000648783 6.5047 -0.000648795 6.77409C-0.000648806 7.04347 0.106363 7.30182 0.296846 7.4923C0.487331 7.68279 0.745681 7.7898 1.01507 7.7898L14.4662 7.7898L10.4541 11.8019C10.2691 11.9934 10.1667 12.25 10.169 12.5163C10.1713 12.7826 10.2781 13.0374 10.4665 13.2257C10.6548 13.414 10.9095 13.5209 11.1759 13.5232C11.4422 13.5255 11.6987 13.4231 11.8903 13.2381L17.6362 7.4922Z" fill="white"/>
</svg>
