<svg width="100" height="103" viewBox="0 0 100 103" fill="none" xmlns="http://www.w3.org/2000/svg">
<rect width="100" height="103" rx="13" fill="white"/>
<rect x="0.25" y="0.25" width="99.5" height="102.5" rx="12.75" stroke="black" stroke-opacity="0.1" stroke-width="0.5"/>
<path d="M50.1904 63.7187L49.9987 63.9104L49.7879 63.7187C40.6837 55.4579 34.6654 49.9954 34.6654 44.4562C34.6654 40.6229 37.5404 37.7479 41.3737 37.7479C44.3254 37.7479 47.2004 39.6646 48.2162 42.2712H51.7812C52.797 39.6646 55.672 37.7479 58.6237 37.7479C62.457 37.7479 65.332 40.6229 65.332 44.4562C65.332 49.9954 59.3137 55.4579 50.1904 63.7187ZM58.6237 33.9146C55.2887 33.9146 52.0879 35.4671 49.9987 37.9012C47.9095 35.4671 44.7087 33.9146 41.3737 33.9146C35.4704 33.9146 30.832 38.5337 30.832 44.4562C30.832 51.6821 37.3487 57.6046 47.2195 66.5554L49.9987 69.0854L52.7779 66.5554C62.6487 57.6046 69.1654 51.6821 69.1654 44.4562C69.1654 38.5337 64.527 33.9146 58.6237 33.9146Z" fill="#74BF44"/>
</svg>
