<svg width="100" height="103" viewBox="0 0 100 103" fill="none" xmlns="http://www.w3.org/2000/svg">
<rect width="100" height="103" rx="13" fill="white"/>
<rect x="0.25" y="0.25" width="99.5" height="102.5" rx="12.75" stroke="black" stroke-opacity="0.1" stroke-width="0.5"/>
<path d="M31.9143 45.4974C31.9141 43.7577 32.3531 42.0451 33.1921 40.5139C34.031 38.9826 35.2434 37.6807 36.7203 36.7251C38.1971 35.7695 39.8922 35.1903 41.6529 35.0395C43.4136 34.8887 45.1847 35.1711 46.8071 35.8613C48.4294 36.5515 49.852 37.6278 50.9469 38.9934C52.0419 40.3591 52.7748 41.9712 53.0798 43.6849C53.3847 45.3985 53.2522 47.1599 52.6941 48.8106C52.136 50.4613 51.1698 51.9496 49.8825 53.1415C52.3096 54.3015 54.417 56.0203 56.026 58.1523C57.635 60.2842 58.6982 62.7666 59.1255 65.389C59.1726 65.6808 59.1607 65.9789 59.0907 66.2662C59.0207 66.5535 58.8938 66.8244 58.7175 67.0635C58.5411 67.3026 58.3186 67.5051 58.0627 67.6595C57.8068 67.814 57.5225 67.9173 57.2261 67.9635C56.9296 68.0098 56.6268 67.9981 56.3349 67.9292C56.043 67.8603 55.7678 67.7355 55.525 67.5618C55.2821 67.3882 55.0763 67.1692 54.9195 66.9173C54.7626 66.6654 54.6576 66.3855 54.6106 66.0937C54.1537 63.2757 52.6911 60.7103 50.4856 58.8583C48.28 57.0063 45.476 55.9889 42.577 55.9889C39.678 55.9889 36.8739 57.0063 34.6684 58.8583C32.4628 60.7103 31.0003 63.2757 30.5433 66.0937C30.4961 66.3855 30.391 66.6654 30.2339 66.9172C30.0769 67.169 29.871 67.3879 29.628 67.5614C29.385 67.7349 29.1096 67.8596 28.8177 67.9283C28.5257 67.997 28.2229 68.0085 27.9264 67.962C27.63 67.9156 27.3457 67.8121 27.0899 67.6575C26.8341 67.5028 26.6117 67.3002 26.4354 67.0609C26.2592 66.8217 26.1325 66.5507 26.0627 66.2633C25.9929 65.9759 25.9812 65.6778 26.0284 65.386C26.4543 62.7638 27.5169 60.2816 29.1262 58.1504C30.7354 56.0191 32.8436 54.3019 35.2715 53.1445C34.2113 52.1629 33.3665 50.978 32.7892 49.6629C32.2118 48.3477 31.914 46.9301 31.9143 45.4974ZM59.3327 40.9991C61.1028 41.0003 62.8344 41.5073 64.3174 42.4585C65.8004 43.4097 66.971 44.7642 67.6872 46.3576C68.4033 47.951 68.6341 49.7148 68.3517 51.4349C68.0692 53.1549 67.2856 54.7573 66.0959 56.0475C67.9513 56.9522 69.5998 58.2199 70.9407 59.7729C72.2817 61.3259 73.2869 63.1318 73.8949 65.0801C74.0157 65.4582 74.0327 65.861 73.9442 66.2476C73.8557 66.6342 73.6648 66.9909 73.391 67.2814C73.1172 67.572 72.7702 67.7861 72.3852 67.9019C72.0001 68.0177 71.5908 68.0312 71.1988 67.941C70.8068 67.8518 70.4458 67.6623 70.1521 67.3916C69.8584 67.1209 69.6425 66.7787 69.5263 66.3996C68.9795 64.6613 67.9842 63.0923 66.6376 61.8455C65.291 60.5988 63.6391 59.717 61.843 59.2863C61.3441 59.1677 60.9003 58.8873 60.5831 58.4901C60.2658 58.093 60.0937 57.6023 60.0943 57.0971V56.0415C60.0941 55.6227 60.2125 55.2122 60.4364 54.8562C60.6604 54.5001 60.9808 54.2127 61.3617 54.0262C62.2852 53.5756 63.027 52.8309 63.4663 51.913C63.9057 50.9952 64.0168 49.958 63.7818 48.9701C63.5468 47.9821 62.9794 47.1014 62.1717 46.471C61.364 45.8405 60.3635 45.4974 59.3327 45.4974C58.7267 45.4974 58.1456 45.2604 57.7171 44.8386C57.2886 44.4168 57.0478 43.8447 57.0478 43.2482C57.0478 42.6517 57.2886 42.0796 57.7171 41.6578C58.1456 41.236 58.7267 40.9991 59.3327 40.9991ZM42.577 39.4996C41.7656 39.4816 40.9587 39.6233 40.2037 39.9164C39.4487 40.2095 38.7608 40.6482 38.1804 41.2066C37.6 41.765 37.1387 42.432 36.8238 43.1683C36.5088 43.9046 36.3465 44.6954 36.3463 45.4944C36.3461 46.2933 36.508 47.0842 36.8226 47.8207C37.1372 48.5571 37.5981 49.2243 38.1782 49.783C38.7583 50.3417 39.446 50.7807 40.2009 51.0742C40.9557 51.3677 41.7625 51.5098 42.5739 51.4922C44.1659 51.4575 45.6809 50.8107 46.7945 49.6903C47.9081 48.5699 48.5318 47.0648 48.5322 45.4974C48.5326 43.9299 47.9096 42.4245 46.7966 41.3035C45.6836 40.1826 44.169 39.5351 42.577 39.4996Z" fill="#74BF44"/>
</svg>
