<svg width="55" height="55" viewBox="0 0 55 55" fill="none" xmlns="http://www.w3.org/2000/svg">
<rect width="55" height="55" rx="8" fill="#F7F7F7"/>
<path d="M22.25 15H32.75C36.75 15 40 18.25 40 22.25V32.75C40 34.6728 39.2362 36.5169 37.8765 37.8765C36.5169 39.2362 34.6728 40 32.75 40H22.25C18.25 40 15 36.75 15 32.75V22.25C15 20.3272 15.7638 18.4831 17.1235 17.1235C18.4831 15.7638 20.3272 15 22.25 15ZM22 17.5C20.8065 17.5 19.6619 17.9741 18.818 18.818C17.9741 19.6619 17.5 20.8065 17.5 22V33C17.5 35.4875 19.5125 37.5 22 37.5H33C34.1935 37.5 35.3381 37.0259 36.182 36.182C37.0259 35.3381 37.5 34.1935 37.5 33V22C37.5 19.5125 35.4875 17.5 33 17.5H22ZM34.0625 19.375C34.4769 19.375 34.8743 19.5396 35.1674 19.8326C35.4604 20.1257 35.625 20.5231 35.625 20.9375C35.625 21.3519 35.4604 21.7493 35.1674 22.0424C34.8743 22.3354 34.4769 22.5 34.0625 22.5C33.6481 22.5 33.2507 22.3354 32.9576 22.0424C32.6646 21.7493 32.5 21.3519 32.5 20.9375C32.5 20.5231 32.6646 20.1257 32.9576 19.8326C33.2507 19.5396 33.6481 19.375 34.0625 19.375ZM27.5 21.25C29.1576 21.25 30.7473 21.9085 31.9194 23.0806C33.0915 24.2527 33.75 25.8424 33.75 27.5C33.75 29.1576 33.0915 30.7473 31.9194 31.9194C30.7473 33.0915 29.1576 33.75 27.5 33.75C25.8424 33.75 24.2527 33.0915 23.0806 31.9194C21.9085 30.7473 21.25 29.1576 21.25 27.5C21.25 25.8424 21.9085 24.2527 23.0806 23.0806C24.2527 21.9085 25.8424 21.25 27.5 21.25ZM27.5 23.75C26.5054 23.75 25.5516 24.1451 24.8483 24.8483C24.1451 25.5516 23.75 26.5054 23.75 27.5C23.75 28.4946 24.1451 29.4484 24.8483 30.1517C25.5516 30.8549 26.5054 31.25 27.5 31.25C28.4946 31.25 29.4484 30.8549 30.1517 30.1517C30.8549 29.4484 31.25 28.4946 31.25 27.5C31.25 26.5054 30.8549 25.5516 30.1517 24.8483C29.4484 24.1451 28.4946 23.75 27.5 23.75Z" fill="#525252"/>
</svg>
