<svg width="24" height="28" viewBox="0 0 24 28" fill="none" xmlns="http://www.w3.org/2000/svg">
<path d="M12 4.16178C9.93721 4.16178 7.9589 4.95854 6.50028 6.37677C5.04166 7.79501 4.22222 9.71855 4.22222 11.7242C4.22222 14.8162 6.20222 17.7991 8.37556 20.1099C9.48682 21.2871 10.6994 22.3699 12 23.3467C12.1941 23.2019 12.4219 23.0254 12.6833 22.8173C13.7276 21.9835 14.7103 21.0796 15.6244 20.1121C17.7978 17.7991 19.7778 14.8173 19.7778 11.7242C19.7778 9.71855 18.9583 7.79501 17.4997 6.37677C16.0411 4.95854 14.0628 4.16178 12 4.16178ZM12 26L11.37 25.5787L11.3667 25.5765L11.36 25.5711L11.3378 25.556L11.2544 25.4987L10.9544 25.2859C9.43429 24.1751 8.02208 22.931 6.73556 21.5695C4.46444 19.1517 2 15.6524 2 11.7232C2 9.14442 3.05357 6.67129 4.92893 4.84785C6.8043 3.0244 9.34784 2 12 2C14.6522 2 17.1957 3.0244 19.0711 4.84785C20.9464 6.67129 22 9.14442 22 11.7232C22 15.6524 19.5356 19.1527 17.2644 21.5673C15.9783 22.9288 14.5664 24.1728 13.0467 25.2837C12.9201 25.3757 12.7923 25.4661 12.6633 25.5549L12.64 25.57L12.6333 25.5754L12.6311 25.5765L12 26ZM12 9.56354C11.4106 9.56354 10.8454 9.79118 10.4287 10.1964C10.0119 10.6016 9.77778 11.1512 9.77778 11.7242C9.77778 12.2973 10.0119 12.8469 10.4287 13.2521C10.8454 13.6573 11.4106 13.8849 12 13.8849C12.5894 13.8849 13.1546 13.6573 13.5713 13.2521C13.9881 12.8469 14.2222 12.2973 14.2222 11.7242C14.2222 11.1512 13.9881 10.6016 13.5713 10.1964C13.1546 9.79118 12.5894 9.56354 12 9.56354ZM7.55556 11.7242C7.55556 10.5781 8.02381 9.47897 8.8573 8.66855C9.6908 7.85813 10.8213 7.40284 12 7.40284C13.1787 7.40284 14.3092 7.85813 15.1427 8.66855C15.9762 9.47897 16.4444 10.5781 16.4444 11.7242C16.4444 12.8703 15.9762 13.9695 15.1427 14.7799C14.3092 15.5904 13.1787 16.0456 12 16.0456C10.8213 16.0456 9.6908 15.5904 8.8573 14.7799C8.02381 13.9695 7.55556 12.8703 7.55556 11.7242Z" fill="#74BF44"/>
</svg>
