<svg width="23" height="23" viewBox="0 0 23 23" fill="none" xmlns="http://www.w3.org/2000/svg">
<path d="M7.07888 15.4215C4.92828 13.2667 3.27439 10.6682 2.23288 7.80751C1.65988 6.24351 2.18488 4.52551 3.36288 3.34751L4.09188 2.61951C4.28786 2.42313 4.52066 2.26733 4.77693 2.16102C5.03321 2.05472 5.30793 2 5.58538 2C5.86282 2 6.13755 2.05472 6.39382 2.16102C6.6501 2.26733 6.88289 2.42313 7.07888 2.61951L8.78588 4.32651C8.98226 4.5225 9.13806 4.75529 9.24437 5.01157C9.35067 5.26784 9.40539 5.54256 9.40539 5.82001C9.40539 6.09746 9.35067 6.37218 9.24437 6.62846C9.13806 6.88473 8.98226 7.11752 8.78588 7.31351L8.36588 7.73351C8.19776 7.90159 8.0644 8.10114 7.97342 8.32076C7.88243 8.54039 7.8356 8.77579 7.8356 9.01351C7.8356 9.25124 7.88243 9.48663 7.97342 9.70626C8.0644 9.92588 8.19776 10.1254 8.36588 10.2935L12.2059 14.1345C12.374 14.3026 12.5735 14.436 12.7931 14.527C13.0128 14.618 13.2482 14.6648 13.4859 14.6648C13.7236 14.6648 13.959 14.618 14.1786 14.527C14.3982 14.436 14.5978 14.3026 14.7659 14.1345L15.1869 13.7145C15.3829 13.5181 15.6157 13.3623 15.8719 13.256C16.1282 13.1497 16.4029 13.095 16.6804 13.095C16.9578 13.095 17.2325 13.1497 17.4888 13.256C17.7451 13.3623 17.9779 13.5181 18.1739 13.7145L19.8809 15.4215C20.0773 15.6175 20.2331 15.8503 20.3394 16.1066C20.4457 16.3628 20.5004 16.6376 20.5004 16.915C20.5004 17.1925 20.4457 17.4672 20.3394 17.7235C20.2331 17.9797 20.0773 18.2125 19.8809 18.4085L19.1529 19.1365C17.9749 20.3155 16.2569 20.8405 14.6929 20.2675C11.8322 19.226 9.23364 17.5721 7.07888 15.4215Z" stroke="#74BF44" stroke-width="1.5" stroke-linejoin="round"/>
</svg>
