<svg width="55" height="55" viewBox="0 0 55 55" fill="none" xmlns="http://www.w3.org/2000/svg">
<rect width="55" height="55" rx="8" fill="#F7F7F7"/>
<path d="M33.6607 19.6033C32.7454 18.6061 32.2409 17.3256 32.2411 16H28.1027V31.8444C28.0714 32.7021 27.6922 33.5146 27.0451 34.1106C26.3979 34.7066 25.5334 35.0394 24.6339 35.0389C22.7321 35.0389 21.1518 33.5567 21.1518 31.7167C21.1518 29.5189 23.375 27.8706 25.6652 28.5478V24.51C21.0446 23.9222 17 27.3467 17 31.7167C17 35.9717 20.6964 39 24.6205 39C28.8259 39 32.2411 35.7417 32.2411 31.7167V23.6794C33.9192 24.8293 35.934 25.4462 38 25.4428V21.4944C38 21.4944 35.4821 21.6094 33.6607 19.6033Z" fill="#525252"/>
</svg>
