<svg width="55" height="55" viewBox="0 0 55 55" fill="none" xmlns="http://www.w3.org/2000/svg">
<rect width="55" height="55" rx="8" fill="#F7F7F7"/>
<path d="M24.2 32.4286L32.7635 27.5L24.2 22.5714V32.4286ZM43.274 19.565C43.4885 20.3371 43.637 21.3721 43.736 22.6864C43.8515 24.0007 43.901 25.1343 43.901 26.12L44 27.5C44 31.0979 43.736 33.7429 43.274 35.435C42.8615 36.9136 41.9045 37.8664 40.4195 38.2771C39.644 38.4907 38.225 38.6386 36.047 38.7371C33.902 38.8521 31.9385 38.9014 30.1235 38.9014L27.5 39C20.5865 39 16.28 38.7371 14.5805 38.2771C13.0955 37.8664 12.1385 36.9136 11.726 35.435C11.5115 34.6629 11.363 33.6279 11.264 32.3136C11.1485 30.9993 11.099 29.8657 11.099 28.88L11 27.5C11 23.9021 11.264 21.2571 11.726 19.565C12.1385 18.0864 13.0955 17.1336 14.5805 16.7229C15.356 16.5093 16.775 16.3614 18.953 16.2629C21.098 16.1479 23.0615 16.0986 24.8765 16.0986L27.5 16C34.4135 16 38.72 16.2629 40.4195 16.7229C41.9045 17.1336 42.8615 18.0864 43.274 19.565Z" fill="#525252"/>
</svg>
