<svg width="101" height="101" viewBox="0 0 101 101" fill="none" xmlns="http://www.w3.org/2000/svg">
<rect width="101" height="101" rx="15.7403" fill="#B0CB64" fill-opacity="0.75"/>
<path d="M63.7891 51.2657L63.1328 41.3673L58.5938 44.1564C56.3516 43.7736 55.75 43.7736 54 42.9532C52.9609 42.4611 51.6484 42.7892 50.9922 43.172C50.0078 42.1329 43.6094 43.6642 42.8984 43.9923C40.9844 43.3907 38.1406 41.2032 38.1406 41.2032L37.1562 52.3595L38.4688 52.6876C38.5781 53.0704 38.9063 54.0001 38.9063 54.0001C37.7031 55.5314 39.125 57.3361 40.4922 56.7345C39.8906 58.2657 41.4766 59.6876 42.7344 58.7032C42.5703 60.1251 44.0469 61.1642 45.1406 60.1798C44.6484 61.8751 46.5625 63.1329 47.7109 61.7657C48.5312 62.3126 49.2969 62.7501 49.9531 62.9689C51.1016 63.4611 52.3594 62.3673 52.1406 61.0001C53.4531 62.5314 55.4219 61.0548 54.9844 59.3595C56.4609 60.5079 58.2656 58.5939 57.3359 56.8986C58.9766 57.8282 60.3984 55.3126 58.8125 53.672L63.7891 51.2657Z" fill="#FFDD67"/>
<path d="M40.6016 52.8519C41.4219 53.2347 41.9688 54.4925 41.0938 55.5862L40.7109 56.0237C40.2734 56.5706 39.8359 56.7347 39.3984 56.7347C39.7266 56.8987 40.1094 56.8987 40.4922 56.7347C40.5469 56.5706 40.6563 56.3519 40.8203 56.1878L41.2031 55.7503C41.4219 55.4769 41.6953 55.2581 41.9141 55.1487C42.3516 54.0003 41.5859 52.9066 40.6016 52.8519ZM46.8359 58.2659C47.7109 58.4847 48.3672 59.6331 47.7109 60.8909L47.3828 61.3831C47.0547 61.9847 46.6172 62.2581 46.1797 62.3128C46.7812 62.4769 47.4375 62.2581 47.875 61.4378L48.2031 60.9456C49.0234 59.4144 47.9844 58.1566 46.8359 58.2659ZM43.0078 57.8284L43.8828 56.4612C43.8281 55.6956 43.1719 55.0394 42.5156 54.9847C43.3359 55.3675 43.8828 56.6253 43.0078 57.7191L42.625 58.1566C42.1875 58.7034 41.75 58.8675 41.2578 58.8675C41.6953 59.0862 42.1875 59.0316 42.6797 58.7034C42.7344 58.43 42.8437 58.1019 43.0078 57.8284ZM45.3594 55.3675C46.2344 55.6409 46.8359 56.8441 46.0703 58.0472L45.0312 59.6878C44.6484 60.2894 44.2109 60.5081 43.7734 60.5081C44.3203 60.6722 45.0312 60.5081 45.5234 59.7425L46.5625 58.1019C47.4375 56.68 46.4531 55.3128 45.3594 55.3675ZM52.6328 56.7347C52.6875 56.7347 53.3437 56.6253 53.5625 56.6253C52.7422 55.805 51.4297 56.4612 50.6641 56.0237C51.2109 56.9534 52.3594 56.7347 52.4687 56.7347L53.7812 58.43C54.875 59.7972 54 61.3831 52.8516 61.5472C54.0547 61.93 55.2578 60.6722 54.875 59.305C54.8203 59.2503 52.6328 56.7347 52.6328 56.7347ZM53.9453 53.5628C53.9453 53.5628 54.7656 53.3987 55.4766 53.3987C54.6562 52.7425 53.3984 53.3441 52.5781 52.7972C52.9062 53.5081 53.6172 53.5081 53.8359 53.5628L56.3516 56.4612C57.5 57.7737 56.6797 59.3597 55.5312 59.6331C56.8437 60.0159 58.1016 58.3206 57.2812 56.8441C56.7344 56.6253 53.9453 53.5628 53.9453 53.5628Z" fill="#EBA352"/>
<path d="M52.1953 59.8519C51.375 59.1956 50.2266 59.6878 49.7344 59.3597C50.0078 60.1253 51.0469 59.9612 51.1016 59.9612C52.0312 61.3831 51.0469 62.8597 49.8984 62.9691C51.0469 63.4612 52.3047 62.3675 52.0859 61.0003C52.0313 60.9456 51.2656 59.9612 51.2656 59.9612C51.375 59.9066 51.9766 59.8519 52.1953 59.8519ZM63.1875 50.3362C63.1875 50.3362 62.2578 52.2503 58.6484 53.2894C58.1563 52.6878 57.1172 51.4847 55.9141 50.4456C56.6797 50.2816 57.0625 49.68 57.6641 49.5706C57.4453 49.3519 56.6797 49.4612 56.0781 49.68C54.9844 50.0628 52.4688 48.3128 52.4688 48.3128L50.3906 48.5862C48.9141 50.0081 45.7422 50.7737 45.5781 48.5862C45.4688 47.055 48.8047 46.0159 49.8438 45.0316C51.1563 43.7737 52.3047 42.1878 54.4375 43.2816C56.1875 44.1566 56.8984 44.1019 59.3047 44.5394C60.125 44.7034 60.6719 45.0862 61.2734 45.9066C60.7813 44.7581 60.0703 44.2659 59.1953 44.1019L63.0234 42.2972L63.0781 41.3675L58.5391 43.9378C56.4609 43.6097 55.6953 43.6097 54 42.7894C52.9063 42.2425 52.0313 42.4066 51.3203 42.8441C50.0078 42.0784 49.2422 42.2425 48.75 42.3519C47.2188 42.8441 44.7578 42.8987 42.5703 43.7737C42.9531 43.8831 43.3359 43.9925 43.6094 43.9925C45.7422 43.3362 47.9844 43.3909 49.0234 43.0081C49.3516 42.8987 50.0078 42.8987 50.7188 43.2816C50.2813 43.6644 49.8984 44.1019 49.4609 44.5394C48.4219 45.5237 45.25 46.9456 45.4688 48.7503C45.5781 49.6253 46.7813 51.9222 50.7734 49.3519L52.4688 49.1331C52.4688 49.1331 55.5859 50.6097 58.4844 54.0003C59.6328 55.3128 58.9219 56.7347 57.7734 57.0628C59.25 57.3362 60.5078 55.2581 59.0859 53.8362L62.5313 51.9769L63.1875 50.3362Z" fill="#EBA352"/>
<path d="M62.2053 41.9142L64.01 51.2657L62.5334 51.922C61.7678 49.8986 60.6193 45.0314 60.8928 42.6798L62.2053 41.9142Z" fill="#3B946F"/>
<path d="M39.0703 53.7814C38.7969 53.1251 38.6328 52.2501 38.6328 52.2501L37.2656 51.3204L37.1562 52.3595L38.3594 52.6876C38.5234 53.2345 38.6875 53.672 38.9063 54.0001L39.0703 53.7814Z" fill="#EBA352"/>
<path d="M36.3359 52.1954L39.2891 41.9689L40.6562 42.8986C40.875 44.4298 38.3594 51.4298 37.4297 52.4689L36.3359 52.1954Z" fill="#74BF44"/>
<path d="M62.1484 41.8595C61.7109 42.1329 63.2969 51.5939 63.9531 51.3204C66.0312 50.3907 66.9609 50.1173 66.9609 50.1173V38.8517C66.9062 38.8517 65.6484 39.7814 62.1484 41.8595ZM34.0938 37.922V51.8673C34.0938 51.8673 35.0781 52.0314 36.3359 52.3048C37.0469 52.4689 39.6172 42.1876 39.4531 42.0236C37.5937 40.7657 34.0938 37.922 34.0938 37.922Z" fill="#74BF44"/>
</svg>
